<svg width="14" height="7" viewBox="0 0 14 7" fill="none" xmlns="http://www.w3.org/2000/svg">
<path d="M13.023 1.14797L7.39804 6.77297C7.3458 6.82527 7.28376 6.86676 7.21547 6.89507C7.14719 6.92337 7.07399 6.93794 7.00007 6.93794C6.92615 6.93794 6.85295 6.92337 6.78466 6.89507C6.71638 6.86676 6.65434 6.82527 6.6021 6.77297L0.9771 1.14797C0.871552 1.04242 0.812256 0.899267 0.812256 0.75C0.812256 0.600733 0.871552 0.457579 0.9771 0.352031C1.08265 0.246483 1.2258 0.187187 1.37507 0.187187C1.52434 0.187187 1.66749 0.246483 1.77304 0.352031L7.00007 5.57977L12.2271 0.352031C12.2794 0.299769 12.3414 0.258313 12.4097 0.230029C12.478 0.201745 12.5512 0.187187 12.6251 0.187187C12.699 0.187187 12.7722 0.201745 12.8404 0.230029C12.9087 0.258313 12.9708 0.299769 13.023 0.352031C13.0753 0.404293 13.1168 0.466337 13.145 0.534621C13.1733 0.602904 13.1879 0.67609 13.1879 0.75C13.1879 0.82391 13.1733 0.897096 13.145 0.965379C13.1168 1.03366 13.0753 1.09571 13.023 1.14797Z" fill="#343330"/>
</svg>
