<svg width="14" height="14" viewBox="0 0 14 14" fill="none" xmlns="http://www.w3.org/2000/svg">
<rect width="14" height="14" fill="#CC5DE8"/>
<path d="M13.2743 11.5188L10.2118 5.39383C10.1573 5.28491 10.0735 5.19332 9.96985 5.12931C9.86621 5.06531 9.74681 5.0314 9.625 5.0314C9.50319 5.0314 9.38379 5.06531 9.28015 5.12931C9.17652 5.19332 9.09274 5.28491 9.0382 5.39383L7.91602 7.63602C7.16 7.56993 6.43203 7.318 5.79688 6.90266C6.56871 6.00506 7.05152 4.89533 7.18211 3.71875H8.3125C8.48655 3.71875 8.65347 3.64961 8.77654 3.52654C8.89961 3.40347 8.96875 3.23655 8.96875 3.0625C8.96875 2.88845 8.89961 2.72153 8.77654 2.59846C8.65347 2.47539 8.48655 2.40625 8.3125 2.40625H5.46875V1.75C5.46875 1.57595 5.39961 1.40903 5.27654 1.28596C5.15347 1.16289 4.98655 1.09375 4.8125 1.09375C4.63845 1.09375 4.47153 1.16289 4.34846 1.28596C4.22539 1.40903 4.15625 1.57595 4.15625 1.75V2.40625H1.3125C1.13845 2.40625 0.971532 2.47539 0.848461 2.59846C0.72539 2.72153 0.65625 2.88845 0.65625 3.0625C0.65625 3.23655 0.72539 3.40347 0.848461 3.52654C0.971532 3.64961 1.13845 3.71875 1.3125 3.71875H5.85867C5.73557 4.57403 5.37286 5.377 4.8125 6.03477C4.53904 5.71477 4.31087 5.3587 4.13437 4.97656C4.09981 4.89619 4.04952 4.82354 3.98646 4.76289C3.92341 4.70224 3.84886 4.65481 3.76721 4.62339C3.68556 4.59197 3.59845 4.57719 3.511 4.57993C3.42355 4.58266 3.33754 4.60285 3.25801 4.63932C3.17848 4.67578 3.10704 4.72778 3.0479 4.79226C2.98877 4.85673 2.94312 4.93238 2.91364 5.01476C2.88416 5.09713 2.87146 5.18457 2.87626 5.27192C2.88107 5.35928 2.9033 5.4448 2.94164 5.52344C3.17121 6.02269 3.4696 6.48732 3.82812 6.90375C3.08128 7.39534 2.20661 7.65698 1.3125 7.65625C1.13845 7.65625 0.971532 7.72539 0.848461 7.84846C0.72539 7.97153 0.65625 8.13845 0.65625 8.3125C0.65625 8.48655 0.72539 8.65347 0.848461 8.77654C0.971532 8.89961 1.13845 8.96875 1.3125 8.96875C2.57252 8.96977 3.79951 8.56582 4.8125 7.81648C5.54712 8.3571 6.39658 8.72091 7.29477 8.87961L5.97516 11.5188C5.93414 11.5961 5.909 11.6809 5.90122 11.768C5.89344 11.8552 5.90317 11.943 5.92984 12.0264C5.95651 12.1097 5.99958 12.1869 6.05652 12.2534C6.11346 12.3198 6.18311 12.3742 6.26139 12.4134C6.33966 12.4525 6.42497 12.4756 6.5123 12.4813C6.59963 12.4869 6.68721 12.4751 6.76989 12.4464C6.85257 12.4177 6.92869 12.3728 6.99375 12.3143C7.05881 12.2558 7.11151 12.1848 7.14875 12.1056L7.84273 10.7188H11.4067L12.1002 12.1056C12.1387 12.1827 12.192 12.2515 12.2571 12.308C12.3222 12.3644 12.3978 12.4075 12.4796 12.4348C12.5613 12.4621 12.6477 12.473 12.7336 12.4669C12.8196 12.4608 12.9035 12.4378 12.9806 12.3993C13.0577 12.3608 13.1265 12.3074 13.183 12.2423C13.2394 12.1772 13.2825 12.1016 13.3098 12.0199C13.3371 11.9381 13.348 11.8518 13.3419 11.7658C13.3358 11.6799 13.3128 11.5959 13.2743 11.5188ZM8.49898 9.40625L9.625 7.15477L10.7505 9.40625H8.49898Z" fill="white"/>
</svg>
