<svg width="51" height="52" viewBox="0 0 51 52" fill="none" xmlns="http://www.w3.org/2000/svg">
<path d="M35.1875 22.1249C35.1875 22.6388 34.9834 23.1316 34.62 23.4949C34.2567 23.8583 33.7639 24.0624 33.25 24.0624H17.75C17.2361 24.0624 16.7433 23.8583 16.38 23.4949C16.0166 23.1316 15.8125 22.6388 15.8125 22.1249C15.8125 21.6111 16.0166 21.1183 16.38 20.7549C16.7433 20.3916 17.2361 20.1874 17.75 20.1874H33.25C33.7639 20.1874 34.2567 20.3916 34.62 20.7549C34.9834 21.1183 35.1875 21.6111 35.1875 22.1249ZM33.25 27.9374H17.75C17.2361 27.9374 16.7433 28.1416 16.38 28.5049C16.0166 28.8683 15.8125 29.3611 15.8125 29.8749C15.8125 30.3888 16.0166 30.8816 16.38 31.2449C16.7433 31.6083 17.2361 31.8124 17.75 31.8124H33.25C33.7639 31.8124 34.2567 31.6083 34.62 31.2449C34.9834 30.8816 35.1875 30.3888 35.1875 29.8749C35.1875 29.3611 34.9834 28.8683 34.62 28.5049C34.2567 28.1416 33.7639 27.9374 33.25 27.9374ZM50.6875 25.9999C50.6884 30.3485 49.5635 34.6232 47.4223 38.408C45.281 42.1928 42.1963 45.3588 38.4684 47.5978C34.7406 49.8368 30.4965 51.0724 26.1494 51.1845C21.8023 51.2967 17.5002 50.2814 13.6619 48.2376L5.41539 50.9864C4.73263 51.2141 3.99995 51.2471 3.29946 51.0818C2.59898 50.9165 1.95838 50.5594 1.44945 50.0505C0.940528 49.5415 0.583398 48.9009 0.418088 48.2005C0.252778 47.5 0.285821 46.7673 0.513515 46.0845L3.26234 37.838C1.46567 34.4601 0.462165 30.7172 0.327994 26.8935C0.193822 23.0698 0.932513 19.2658 2.488 15.7702C4.04348 12.2747 6.37487 9.17939 9.30521 6.71936C12.2355 4.25933 15.6878 2.4992 19.3999 1.57259C23.1121 0.645975 26.9865 0.577225 30.7292 1.37156C34.4719 2.16589 37.9844 3.80243 41.0002 6.15694C44.016 8.51146 46.4557 11.5221 48.1342 14.9603C49.8127 18.3985 50.6859 22.1739 50.6875 25.9999ZM46.8125 25.9999C46.8116 22.7307 46.0586 19.5055 44.6117 16.5738C43.1649 13.6422 41.063 11.0827 38.4687 9.09338C35.8744 7.10404 32.8572 5.73821 29.6506 5.10153C26.4439 4.46486 23.1338 4.57442 19.9763 5.42173C16.8187 6.26904 13.8985 7.8314 11.4414 9.98792C8.98429 12.1444 7.05625 14.8373 5.80643 17.8582C4.5566 20.8791 4.0185 24.147 4.23374 27.4092C4.44899 30.6713 5.41182 33.8402 7.04773 36.6707C7.18504 36.9083 7.27029 37.1724 7.29785 37.4455C7.3254 37.7185 7.29463 37.9943 7.20758 38.2546L4.1875 47.3124L13.2453 44.2923C13.4426 44.2251 13.6496 44.1907 13.858 44.1906C14.1983 44.1912 14.5325 44.2814 14.8268 44.4522C18.0668 46.3268 21.7433 47.3149 25.4865 47.3173C29.2297 47.3197 32.9075 46.3361 36.1499 44.4657C39.3922 42.5952 42.0848 39.9037 43.9566 36.6621C45.8283 33.4205 46.8134 29.7431 46.8125 25.9999Z" fill="#CC5DE8"/>
</svg>
