<svg width="39" height="54" viewBox="0 0 39 54" fill="none" xmlns="http://www.w3.org/2000/svg">
<path d="M36.8751 0.8125H27.1876C26.6738 0.8125 26.181 1.01663 25.8176 1.37998C25.4542 1.74333 25.2501 2.23614 25.2501 2.75C25.2501 3.26386 25.4542 3.75667 25.8176 4.12002C26.181 4.48337 26.6738 4.6875 27.1876 4.6875H32.1985L26.1075 10.7785C24.319 9.11176 22.1616 7.8917 19.8115 7.21798C17.4614 6.54426 14.9853 6.436 12.5853 6.90203C10.1854 7.36806 7.92977 8.39517 6.00262 9.89947C4.07548 11.4038 2.53149 13.3426 1.49677 15.5576C0.462054 17.7726 -0.0340496 20.2009 0.0489824 22.6442C0.132014 25.0876 0.791826 27.4766 1.97453 29.6163C3.15723 31.7559 4.82927 33.5854 6.8541 34.9554C8.87892 36.3254 11.1991 37.197 13.6251 37.4991V41.5H7.81262C7.29877 41.5 6.80596 41.7041 6.4426 42.0675C6.07925 42.4308 5.87512 42.9236 5.87512 43.4375C5.87512 43.9514 6.07925 44.4442 6.4426 44.8075C6.80596 45.1709 7.29877 45.375 7.81262 45.375H13.6251V51.1875C13.6251 51.7014 13.8293 52.1942 14.1926 52.5575C14.556 52.9209 15.0488 53.125 15.5626 53.125C16.0765 53.125 16.5693 52.9209 16.9326 52.5575C17.296 52.1942 17.5001 51.7014 17.5001 51.1875V45.375H23.3126C23.8265 45.375 24.3193 45.1709 24.6826 44.8075C25.046 44.4442 25.2501 43.9514 25.2501 43.4375C25.2501 42.9236 25.046 42.4308 24.6826 42.0675C24.3193 41.7041 23.8265 41.5 23.3126 41.5H17.5001V37.4991C20.0972 37.1746 22.5696 36.1971 24.6862 34.6578C26.8029 33.1184 28.4948 31.0676 29.6037 28.6969C30.7126 26.3262 31.2023 23.7131 31.0271 21.1017C30.852 18.4903 30.0176 15.966 28.602 13.7647L34.9376 7.42664V12.4375C34.9376 12.9514 35.1418 13.4442 35.5051 13.8075C35.8685 14.1709 36.3613 14.375 36.8751 14.375C37.389 14.375 37.8818 14.1709 38.2451 13.8075C38.6085 13.4442 38.8126 12.9514 38.8126 12.4375V2.75C38.8126 2.23614 38.6085 1.74333 38.2451 1.37998C37.8818 1.01663 37.389 0.8125 36.8751 0.8125ZM15.5626 33.75C13.2634 33.75 11.0158 33.0682 9.10412 31.7908C7.1924 30.5135 5.70239 28.6979 4.82253 26.5737C3.94266 24.4495 3.71244 22.1121 4.161 19.8571C4.60955 17.602 5.71672 15.5307 7.34251 13.9049C8.96829 12.2791 11.0397 11.1719 13.2947 10.7234C15.5497 10.2748 17.8871 10.505 20.0113 11.3849C22.1355 12.2648 23.9511 13.7548 25.2285 15.6665C26.5058 17.5782 27.1876 19.8258 27.1876 22.125C27.1844 25.2072 25.9586 28.1622 23.7792 30.3416C21.5998 32.521 18.6448 33.7468 15.5626 33.75Z" fill="#CC5DE8"/>
</svg>
