<svg width="55" height="44" viewBox="0 0 55 44" fill="none" xmlns="http://www.w3.org/2000/svg">
<path d="M53.9469 27.7812C53.7851 27.3297 53.595 26.8889 53.3777 26.4613L43.3052 3.54553C43.2099 3.32482 43.0734 3.12427 42.9031 2.95459C42.1834 2.23475 41.329 1.66373 40.3886 1.27415C39.4482 0.884561 38.4403 0.684043 37.4224 0.684043C36.4045 0.684043 35.3966 0.884561 34.4562 1.27415C33.5158 1.66373 32.6614 2.23475 31.9417 2.95459C31.5796 3.31707 31.3759 3.8082 31.375 4.32053V10.3752H23.625V4.32053C23.6252 4.06602 23.5753 3.81396 23.478 3.57876C23.3808 3.34355 23.2381 3.12981 23.0583 2.94975C22.3386 2.22991 21.4842 1.65889 20.5438 1.2693C19.6034 0.879718 18.5955 0.679199 17.5776 0.679199C16.5597 0.679199 15.5518 0.879718 14.6114 1.2693C13.671 1.65889 12.8166 2.22991 12.0969 2.94975C11.9266 3.11943 11.7901 3.31998 11.6948 3.54068L1.62227 26.4565C1.40499 26.884 1.2149 27.3249 1.05313 27.7764C0.482774 29.3723 0.268242 31.0735 0.424558 32.761C0.580874 34.4485 1.10426 36.0814 1.95805 37.5453C2.81183 39.0093 3.97538 40.2688 5.36717 41.2358C6.75895 42.2027 8.34533 42.8537 10.0152 43.1431C11.685 43.4324 13.3979 43.3532 15.0339 42.9109C16.6699 42.4686 18.1894 41.674 19.4859 40.5826C20.7825 39.4913 21.8248 38.1297 22.5398 36.5932C23.2548 35.0567 23.6252 33.3824 23.625 31.6877V14.2502H31.375V31.6877C31.3741 33.3826 31.7439 35.0572 32.4584 36.5942C33.1729 38.1312 34.2149 39.4933 35.5113 40.5851C36.8077 41.677 38.3271 42.4722 39.9632 42.9149C41.5993 43.3577 43.3124 43.4373 44.9825 43.1483C46.6525 42.8593 48.2392 42.2085 49.6313 41.2417C51.0234 40.2748 52.1873 39.0153 53.0413 37.5512C53.8954 36.0872 54.419 34.4541 54.5754 32.7665C54.7318 31.0788 54.5173 29.3773 53.9469 27.7812ZM15.0782 5.47092C15.7242 4.92702 16.5301 4.60902 17.3734 4.5653C18.2167 4.52159 19.0513 4.75454 19.75 5.22873V23.0319C18.2373 21.6736 16.3942 20.7367 14.4054 20.3151C12.4165 19.8934 10.3518 20.0018 8.41805 20.6294L15.0782 5.47092ZM12 39.4377C10.4672 39.4377 8.96881 38.9832 7.69433 38.1316C6.41985 37.28 5.42651 36.0696 4.83994 34.6535C4.25336 33.2374 4.09988 31.6791 4.39892 30.1758C4.69795 28.6724 5.43607 27.2915 6.51992 26.2076C7.60378 25.1238 8.9847 24.3857 10.4881 24.0866C11.9914 23.7876 13.5497 23.9411 14.9658 24.5277C16.3819 25.1142 17.5923 26.1076 18.4439 27.382C19.2955 28.6565 19.75 30.1549 19.75 31.6877C19.75 33.7431 18.9335 35.7144 17.4801 37.1678C16.0267 38.6212 14.0554 39.4377 12 39.4377ZM35.25 5.22631C35.9487 4.75212 36.7833 4.51916 37.6266 4.56288C38.4699 4.6066 39.2758 4.9246 39.9218 5.4685L46.582 20.6246C44.648 19.9973 42.5832 19.8893 40.5943 20.3113C38.6055 20.7334 36.7625 21.6708 35.25 23.0295V5.22631ZM43 39.4377C41.4672 39.4377 39.9688 38.9832 38.6943 38.1316C37.4198 37.28 36.4265 36.0696 35.8399 34.6535C35.2534 33.2374 35.0999 31.6791 35.3989 30.1758C35.6979 28.6724 36.4361 27.2915 37.5199 26.2076C38.6038 25.1238 39.9847 24.3857 41.488 24.0866C42.9914 23.7876 44.5497 23.9411 45.9658 24.5277C47.3819 25.1142 48.5923 26.1076 49.4439 27.382C50.2955 28.6565 50.75 30.1549 50.75 31.6877C50.75 33.7431 49.9335 35.7144 48.4801 37.1678C47.0267 38.6212 45.0554 39.4377 43 39.4377Z" fill="#CC5DE8"/>
</svg>
