<svg width="61" height="40" viewBox="0 0 61 40" fill="none" xmlns="http://www.w3.org/2000/svg">
<path d="M27.8965 27.2463C30.4932 25.5175 32.4647 22.999 33.5193 20.0631C34.574 17.1273 34.6559 13.9299 33.7528 10.9439C32.8498 7.95793 31.0098 5.34181 28.5049 3.48243C26 1.62306 22.9633 0.619141 19.8437 0.619141C16.7242 0.619141 13.6874 1.62306 11.1825 3.48243C8.67767 5.34181 6.83767 7.95793 5.93463 10.9439C5.03158 13.9299 5.11345 17.1273 6.16811 20.0631C7.22277 22.999 9.19424 25.5175 11.791 27.2463C7.09374 28.9775 3.08218 32.1812 0.35489 36.3792C0.211553 36.5922 0.111991 36.8316 0.0619909 37.0835C0.0119911 37.3353 0.0125509 37.5946 0.0636378 37.8462C0.114725 38.0979 0.215319 38.3368 0.359575 38.5493C0.50383 38.7617 0.688869 38.9433 0.903935 39.0836C1.119 39.2239 1.3598 39.32 1.61235 39.3664C1.86489 39.4128 2.12414 39.4085 2.37501 39.3538C2.62589 39.2991 2.8634 39.1951 3.07373 39.0478C3.28406 38.9006 3.46302 38.7129 3.6002 38.4959C5.35943 35.7901 7.76669 33.5667 10.6034 32.0275C13.4401 30.4883 16.6163 29.6821 19.8437 29.6821C23.0711 29.6821 26.2474 30.4883 29.0841 32.0275C31.9207 33.5667 34.328 35.7901 36.0872 38.4959C36.3714 38.9183 36.8104 39.2118 37.3093 39.3131C37.8081 39.4144 38.3268 39.3152 38.7532 39.0371C39.1796 38.759 39.4794 38.3243 39.5878 37.8269C39.6962 37.3296 39.6045 36.8095 39.3326 36.3792C36.6053 32.1812 32.5937 28.9775 27.8965 27.2463ZM9.18747 15.1563C9.18747 13.0487 9.81245 10.9884 10.9834 9.23599C12.1543 7.48358 13.8186 6.11774 15.7657 5.3112C17.7129 4.50465 19.8555 4.29362 21.9227 4.70479C23.9898 5.11597 25.8885 6.13088 27.3788 7.62118C28.8691 9.11148 29.884 11.0102 30.2952 13.0774C30.7064 15.1445 30.4954 17.2871 29.6888 19.2343C28.8823 21.1814 27.5164 22.8457 25.764 24.0166C24.0116 25.1876 21.9513 25.8125 19.8437 25.8125C17.0185 25.8093 14.3099 24.6856 12.3122 22.6879C10.3144 20.6901 9.19067 17.9815 9.18747 15.1563ZM60.0808 39.0602C59.6504 39.3408 59.1262 39.439 58.6234 39.3332C58.1206 39.2274 57.6805 38.9262 57.3997 38.4959C55.6426 35.7885 53.2357 33.5641 50.3984 32.0256C47.5611 30.487 44.3838 29.6832 41.1562 29.6875C40.6424 29.6875 40.1496 29.4834 39.7862 29.1201C39.4228 28.7567 39.2187 28.2639 39.2187 27.75C39.2187 27.2362 39.4228 26.7434 39.7862 26.38C40.1496 26.0167 40.6424 25.8125 41.1562 25.8125C42.7255 25.8111 44.2751 25.463 45.6943 24.7932C47.1135 24.1234 48.3672 23.1484 49.3659 21.938C50.3647 20.7275 51.0837 19.3113 51.4716 17.7907C51.8596 16.2702 51.9069 14.6826 51.6102 13.1416C51.3136 11.6006 50.6802 10.1442 49.7554 8.87636C48.8305 7.60852 47.6371 6.56059 46.2603 5.80745C44.8836 5.0543 43.3575 4.61454 41.791 4.51957C40.2246 4.4246 38.6565 4.67678 37.1989 5.25808C36.9612 5.36082 36.7054 5.41489 36.4464 5.41708C36.1875 5.41926 35.9308 5.36953 35.6914 5.27082C35.4521 5.17211 35.2349 5.02643 35.0528 4.84237C34.8707 4.65831 34.7273 4.43962 34.6311 4.19921C34.535 3.95881 34.488 3.70157 34.4929 3.44269C34.4979 3.18381 34.5546 2.92855 34.6599 2.69199C34.7652 2.45543 34.9168 2.24236 35.1058 2.06539C35.2948 1.88841 35.5173 1.75111 35.7603 1.6616C39.0963 0.331144 42.8069 0.283267 46.1761 1.5272C49.5454 2.77114 52.3346 5.21874 54.0057 8.39784C55.6768 11.5769 56.1114 15.2623 55.2256 18.7429C54.3398 22.2235 52.1964 25.2528 49.209 27.2463C53.9062 28.9775 57.9178 32.1812 60.6451 36.3792C60.9257 36.8096 61.0239 37.3338 60.9181 37.8365C60.8123 38.3393 60.5111 38.7795 60.0808 39.0602Z" fill="#CC5DE8"/>
</svg>
