<svg width="47" height="48" viewBox="0 0 47 48" fill="none" xmlns="http://www.w3.org/2000/svg">
<path d="M30.8083 25.3708L21.1208 35.0583C20.9408 35.2383 20.7271 35.3811 20.4919 35.4785C20.2567 35.5759 20.0046 35.6261 19.75 35.6261C19.4954 35.6261 19.2433 35.5759 19.0081 35.4785C18.7729 35.3811 18.5592 35.2383 18.3792 35.0583C18.1992 34.8783 18.0564 34.6646 17.959 34.4294C17.8616 34.1942 17.8114 33.9421 17.8114 33.6875C17.8114 33.4329 17.8616 33.1808 17.959 32.9456C18.0564 32.7104 18.1992 32.4967 18.3792 32.3167L24.7609 25.9375H2.3125C1.79864 25.9375 1.30583 25.7334 0.942481 25.37C0.579129 25.0067 0.375 24.5139 0.375 24C0.375 23.4861 0.579129 22.9933 0.942481 22.63C1.30583 22.2666 1.79864 22.0625 2.3125 22.0625H24.7609L18.3792 15.6833C18.0157 15.3197 17.8114 14.8266 17.8114 14.3125C17.8114 13.7984 18.0157 13.3053 18.3792 12.9417C18.7428 12.5782 19.2359 12.3739 19.75 12.3739C20.2641 12.3739 20.7572 12.5782 21.1208 12.9417L30.8083 22.6292C30.9884 22.8092 31.1313 23.0228 31.2288 23.2581C31.3263 23.4933 31.3765 23.7454 31.3765 24C31.3765 24.2546 31.3263 24.5067 31.2288 24.7419C31.1313 24.9772 30.9884 25.1908 30.8083 25.3708ZM43 0.75H29.4375C28.9236 0.75 28.4308 0.954129 28.0675 1.31748C27.7041 1.68083 27.5 2.17364 27.5 2.6875C27.5 3.20136 27.7041 3.69417 28.0675 4.05752C28.4308 4.42087 28.9236 4.625 29.4375 4.625H43V43.375H29.4375C28.9236 43.375 28.4308 43.5791 28.0675 43.9425C27.7041 44.3058 27.5 44.7986 27.5 45.3125C27.5 45.8264 27.7041 46.3192 28.0675 46.6825C28.4308 47.0459 28.9236 47.25 29.4375 47.25H43C44.0277 47.25 45.0133 46.8417 45.74 46.115C46.4667 45.3883 46.875 44.4027 46.875 43.375V4.625C46.875 3.59729 46.4667 2.61166 45.74 1.88496C45.0133 1.15826 44.0277 0.75 43 0.75Z" fill="#CC5DE8"/>
</svg>
