<svg width="47" height="56" viewBox="0 0 47 56" fill="none" xmlns="http://www.w3.org/2000/svg">
<path d="M43.5482 6.50592L12.0033 0.93561C10.9913 0.757531 9.95005 0.98866 9.10848 1.57817C8.2669 2.16768 7.69392 3.0673 7.51553 4.0792L0.310448 45.0089C0.222323 45.5103 0.233868 46.0242 0.344423 46.5211C0.454977 47.0181 0.662375 47.4884 0.954763 47.9051C1.24715 48.3219 1.6188 48.677 2.04847 48.9501C2.47814 49.2231 2.95741 49.4089 3.45889 49.4966L35.0038 55.0669C35.5054 55.1554 36.0195 55.1441 36.5168 55.0337C37.014 54.9234 37.4846 54.716 37.9016 54.4236C38.3186 54.1312 38.6739 53.7594 38.9472 53.3296C39.2204 52.8997 39.4062 52.4202 39.494 51.9185L46.699 10.9888C46.8756 9.97653 46.6428 8.93559 46.0519 8.09491C45.461 7.25424 44.5604 6.68267 43.5482 6.50592ZM35.6722 51.2501L4.1249 45.6798L11.33 4.75006L42.8749 10.3204L35.6722 51.2501ZM14.1369 11.1487C14.2267 10.6429 14.5136 10.1935 14.9346 9.89919C15.3556 9.60491 15.8762 9.48984 16.382 9.57928L36.4836 13.1273C36.9613 13.211 37.3903 13.4708 37.6857 13.8555C37.9812 14.2401 38.1217 14.7215 38.0794 15.2047C38.0371 15.6879 37.8151 16.1376 37.4573 16.4651C37.0995 16.7925 36.6319 16.9738 36.1469 16.9733C36.0333 16.9731 35.9199 16.9634 35.8079 16.9442L15.7063 13.3937C15.2006 13.304 14.7511 13.0171 14.4568 12.5961C14.1626 12.1751 14.0475 11.6545 14.1369 11.1487ZM12.7952 18.7824C12.8394 18.5318 12.9325 18.2923 13.0692 18.0776C13.206 17.863 13.3836 17.6774 13.5921 17.5314C13.8006 17.3854 14.0358 17.282 14.2843 17.2269C14.5328 17.1719 14.7897 17.1663 15.0403 17.2106L35.1419 20.7611C35.623 20.8415 36.056 21.1005 36.3545 21.4863C36.653 21.872 36.7951 22.3562 36.7523 22.8421C36.7095 23.328 36.485 23.7798 36.1236 24.1075C35.7622 24.4351 35.2905 24.6143 34.8028 24.6094C34.6882 24.6097 34.5739 24.5991 34.4613 24.578L14.3597 21.0299C13.8544 20.9391 13.4057 20.6513 13.1124 20.2299C12.819 19.8085 12.705 19.2879 12.7952 18.7824ZM11.4511 26.4137C11.5425 25.9093 11.8301 25.4617 12.2509 25.1689C12.6717 24.8761 13.1914 24.762 13.6962 24.8516L23.7421 26.6172C24.2196 26.7008 24.6484 26.9605 24.9439 27.3448C25.2393 27.7292 25.38 28.2104 25.338 28.6934C25.296 29.1763 25.0745 29.626 24.7172 29.9537C24.3598 30.2813 23.8927 30.4631 23.4079 30.4631C23.2942 30.4631 23.1808 30.4533 23.0688 30.434L13.018 28.6588C12.5127 28.5685 12.0639 28.2814 11.7701 27.8604C11.4763 27.4395 11.3616 26.9192 11.4511 26.4137Z" fill="#CC5DE8"/>
</svg>
