<svg width="59" height="44" viewBox="0 0 59 44" fill="none" xmlns="http://www.w3.org/2000/svg">
<path d="M58.5001 25.9374C58.5001 26.4513 58.296 26.9441 57.9326 27.3074C57.5693 27.6708 57.0765 27.8749 56.5626 27.8749H52.6876V31.7499C52.6876 32.2638 52.4835 32.7566 52.1201 33.1199C51.7568 33.4833 51.264 33.6874 50.7501 33.6874C50.2362 33.6874 49.7434 33.4833 49.3801 33.1199C49.0167 32.7566 48.8126 32.2638 48.8126 31.7499V27.8749H44.9376C44.4237 27.8749 43.9309 27.6708 43.5676 27.3074C43.2042 26.9441 43.0001 26.4513 43.0001 25.9374C43.0001 25.4236 43.2042 24.9308 43.5676 24.5674C43.9309 24.204 44.4237 23.9999 44.9376 23.9999H48.8126V20.1249C48.8126 19.6111 49.0167 19.1183 49.3801 18.7549C49.7434 18.3916 50.2362 18.1874 50.7501 18.1874C51.264 18.1874 51.7568 18.3916 52.1201 18.7549C52.4835 19.1183 52.6876 19.6111 52.6876 20.1249V23.9999H56.5626C57.0765 23.9999 57.5693 24.204 57.9326 24.5674C58.296 24.9308 58.5001 25.4236 58.5001 25.9374ZM44.4847 40.1902C44.8155 40.5839 44.9763 41.0929 44.9318 41.6052C44.8873 42.1176 44.6411 42.5912 44.2474 42.922C43.8536 43.2528 43.3446 43.4137 42.8323 43.3691C42.32 43.3246 41.8463 43.0784 41.5155 42.6847C36.6427 36.8819 29.9438 33.6874 22.6564 33.6874C15.3689 33.6874 8.67003 36.8819 3.79721 42.6847C3.46642 43.0781 2.99288 43.324 2.48079 43.3683C1.96869 43.4126 1.45997 43.2516 1.06655 42.9208C0.673127 42.59 0.427227 42.1165 0.382943 41.6044C0.33866 41.0923 0.49962 40.5836 0.830416 40.1902C4.4487 35.8841 8.94854 32.8252 13.9497 31.188C10.9124 29.2963 8.57393 26.4669 7.28794 23.1277C6.00196 19.7886 5.83849 16.1215 6.82225 12.6812C7.80602 9.24086 9.8835 6.21455 12.7404 4.06009C15.5973 1.90562 19.0781 0.740234 22.6564 0.740234C26.2346 0.740234 29.7154 1.90562 32.5723 4.06009C35.4292 6.21455 37.5067 9.24086 38.4905 12.6812C39.4742 16.1215 39.3107 19.7886 38.0248 23.1277C36.7388 26.4669 34.4003 29.2963 31.363 31.188C36.3642 32.8252 40.864 35.8841 44.4847 40.1902ZM22.6564 29.8124C25.1472 29.8124 27.582 29.0738 29.6531 27.69C31.7241 26.3062 33.3383 24.3393 34.2915 22.0381C35.2447 19.7369 35.4941 17.2047 35.0081 14.7618C34.5222 12.3188 33.3227 10.0748 31.5615 8.31354C29.8002 6.55228 27.5562 5.35284 25.1133 4.8669C22.6703 4.38097 20.1381 4.63037 17.8369 5.58356C15.5357 6.53675 13.5689 8.15093 12.185 10.222C10.8012 12.293 10.0626 14.7279 10.0626 17.2187C10.0664 20.5576 11.3945 23.7586 13.7555 26.1195C16.1164 28.4805 19.3175 29.8086 22.6564 29.8124Z" fill="#CC5DE8"/>
</svg>
