<svg width="81" height="80" viewBox="0 0 81 80" fill="none" xmlns="http://www.w3.org/2000/svg">
<rect x="0.5" width="80" height="80" rx="6" fill="white"/>
<path d="M66.9469 46.7817C66.7851 46.3302 66.595 45.8894 66.3777 45.4618L56.3052 22.546C56.2099 22.3253 56.0734 22.1248 55.9031 21.9551C55.1834 21.2352 54.329 20.6642 53.3886 20.2746C52.4482 19.885 51.4403 19.6845 50.4224 19.6845C49.4045 19.6845 48.3966 19.885 47.4562 20.2746C46.5158 20.6642 45.6614 21.2352 44.9417 21.9551C44.5796 22.3176 44.3759 22.8087 44.375 23.321V29.3757H36.625V23.321C36.6252 23.0665 36.5753 22.8144 36.478 22.5792C36.3808 22.344 36.2381 22.1303 36.0583 21.9502C35.3386 21.2304 34.4842 20.6594 33.5438 20.2698C32.6034 19.8802 31.5955 19.6797 30.5776 19.6797C29.5597 19.6797 28.5518 19.8802 27.6114 20.2698C26.671 20.6594 25.8166 21.2304 25.0969 21.9502C24.9266 22.1199 24.7901 22.3205 24.6948 22.5412L14.6223 45.457C14.405 45.8845 14.2149 46.3254 14.0531 46.7769C13.4828 48.3727 13.2682 50.074 13.4246 51.7615C13.5809 53.449 14.1043 55.0819 14.958 56.5458C15.8118 58.0098 16.9754 59.2693 18.3672 60.2363C19.759 61.2032 21.3453 61.8542 23.0152 62.1435C24.685 62.4329 26.3979 62.3537 28.0339 61.9114C29.6699 61.4691 31.1894 60.6744 32.4859 59.5831C33.7825 58.4918 34.8248 57.1302 35.5398 55.5937C36.2548 54.0572 36.6252 52.3829 36.625 50.6882V33.2507H44.375V50.6882C44.3741 52.3831 44.7439 54.0577 45.4584 55.5947C46.1729 57.1316 47.2149 58.4938 48.5113 59.5856C49.8077 60.6775 51.3271 61.4727 52.9632 61.9154C54.5993 62.3582 56.3124 62.4378 57.9825 62.1488C59.6525 61.8598 61.2392 61.209 62.6313 60.2422C64.0234 59.2753 65.1873 58.0158 66.0413 56.5517C66.8954 55.0877 67.419 53.4546 67.5754 51.7669C67.7318 50.0793 67.5173 48.3778 66.9469 46.7817ZM28.0782 24.4714C28.7242 23.9275 29.5301 23.6095 30.3734 23.5658C31.2167 23.5221 32.0513 23.755 32.75 24.2292V42.0324C31.2373 40.6741 29.3942 39.7372 27.4054 39.3155C25.4165 38.8939 23.3518 39.0023 21.418 39.6299L28.0782 24.4714ZM25 58.4382C23.4672 58.4382 21.9688 57.9837 20.6943 57.1321C19.4199 56.2805 18.4265 55.0701 17.8399 53.654C17.2534 52.2379 17.0999 50.6796 17.3989 49.1763C17.698 47.6729 18.4361 46.292 19.5199 45.2081C20.6038 44.1243 21.9847 43.3862 23.4881 43.0871C24.9914 42.7881 26.5497 42.9416 27.9658 43.5281C29.3819 44.1147 30.5923 45.1081 31.4439 46.3825C32.2955 47.657 32.75 49.1554 32.75 50.6882C32.75 52.7436 31.9335 54.7149 30.4801 56.1683C29.0267 57.6217 27.0554 58.4382 25 58.4382ZM48.25 24.2268C48.9487 23.7526 49.7833 23.5197 50.6266 23.5634C51.4699 23.6071 52.2758 23.9251 52.9218 24.469L59.582 39.6251C57.648 38.9978 55.5832 38.8897 53.5943 39.3118C51.6055 39.7339 49.7625 40.6713 48.25 42.03V24.2268ZM56 58.4382C54.4672 58.4382 52.9688 57.9837 51.6943 57.1321C50.4198 56.2805 49.4265 55.0701 48.8399 53.654C48.2534 52.2379 48.0999 50.6796 48.3989 49.1763C48.6979 47.6729 49.4361 46.292 50.5199 45.2081C51.6038 44.1243 52.9847 43.3862 54.488 43.0871C55.9914 42.7881 57.5497 42.9416 58.9658 43.5281C60.3819 44.1147 61.5923 45.1081 62.4439 46.3825C63.2955 47.657 63.75 49.1554 63.75 50.6882C63.75 52.7436 62.9335 54.7149 61.4801 56.1683C60.0267 57.6217 58.0554 58.4382 56 58.4382Z" fill="#FD6969"/>
</svg>
