<svg width="81" height="80" viewBox="0 0 81 80" fill="none" xmlns="http://www.w3.org/2000/svg">
<rect x="0.5" width="80" height="80" rx="6" fill="white"/>
<path d="M60.5482 19.5059L29.0033 13.9356C27.9913 13.7575 26.9501 13.9887 26.1085 14.5782C25.2669 15.1677 24.6939 16.0673 24.5155 17.0792L17.3104 58.0089C17.2223 58.5103 17.2339 59.0242 17.3444 59.5211C17.455 60.0181 17.6624 60.4884 17.9548 60.9051C18.2472 61.3219 18.6188 61.677 19.0485 61.9501C19.4781 62.2231 19.9574 62.4089 20.4589 62.4966L52.0038 68.0669C52.5054 68.1554 53.0195 68.1441 53.5168 68.0337C54.014 67.9234 54.4846 67.716 54.9016 67.4236C55.3186 67.1312 55.6739 66.7594 55.9472 66.3296C56.2204 65.8997 56.4062 65.4202 56.494 64.9185L63.699 23.9888C63.8756 22.9765 63.6428 21.9356 63.0519 21.0949C62.461 20.2542 61.5604 19.6827 60.5482 19.5059ZM52.6722 64.2501L21.1249 58.6798L28.33 17.7501L59.8749 23.3204L52.6722 64.2501ZM31.1369 24.1487C31.2267 23.6429 31.5136 23.1935 31.9346 22.8992C32.3556 22.6049 32.8762 22.4898 33.382 22.5793L53.4836 26.1273C53.9613 26.211 54.3903 26.4708 54.6857 26.8555C54.9812 27.2401 55.1217 27.7215 55.0794 28.2047C55.0371 28.6879 54.8151 29.1376 54.4573 29.4651C54.0995 29.7925 53.6319 29.9738 53.1469 29.9733C53.0333 29.9731 52.9199 29.9634 52.8079 29.9442L32.7063 26.3937C32.2006 26.304 31.7511 26.0171 31.4568 25.5961C31.1626 25.1751 31.0475 24.6545 31.1369 24.1487ZM29.7952 31.7824C29.8394 31.5318 29.9325 31.2923 30.0692 31.0776C30.206 30.863 30.3836 30.6774 30.5921 30.5314C30.8006 30.3854 31.0358 30.282 31.2843 30.2269C31.5328 30.1719 31.7897 30.1663 32.0403 30.2106L52.1419 33.7611C52.623 33.8415 53.056 34.1005 53.3545 34.4863C53.653 34.872 53.7951 35.3562 53.7523 35.8421C53.7095 36.328 53.485 36.7798 53.1236 37.1075C52.7622 37.4351 52.2905 37.6143 51.8028 37.6094C51.6882 37.6097 51.5739 37.5991 51.4613 37.578L31.3597 34.0299C30.8544 33.9391 30.4057 33.6513 30.1124 33.2299C29.819 32.8085 29.705 32.2879 29.7952 31.7824ZM28.4511 39.4137C28.5425 38.9093 28.8301 38.4617 29.2509 38.1689C29.6717 37.8761 30.1914 37.762 30.6962 37.8516L40.7421 39.6172C41.2196 39.7008 41.6484 39.9605 41.9439 40.3448C42.2393 40.7292 42.38 41.2104 42.338 41.6934C42.296 42.1763 42.0745 42.626 41.7172 42.9537C41.3598 43.2813 40.8927 43.4631 40.4079 43.4631C40.2942 43.4631 40.1808 43.4533 40.0688 43.434L30.018 41.6588C29.5127 41.5685 29.0639 41.2814 28.7701 40.8604C28.4763 40.4395 28.3616 39.9192 28.4511 39.4137Z" fill="#FD6969"/>
</svg>
