<svg width="81" height="80" viewBox="0 0 81 80" fill="none" xmlns="http://www.w3.org/2000/svg">
<rect x="0.5" width="80" height="80" rx="6" fill="white"/>
<path d="M50.1875 37.1244C50.1875 37.6383 49.9834 38.1311 49.62 38.4945C49.2567 38.8578 48.7639 39.0619 48.25 39.0619H32.75C32.2361 39.0619 31.7433 38.8578 31.38 38.4945C31.0166 38.1311 30.8125 37.6383 30.8125 37.1244C30.8125 36.6106 31.0166 36.1178 31.38 35.7544C31.7433 35.3911 32.2361 35.1869 32.75 35.1869H48.25C48.7639 35.1869 49.2567 35.3911 49.62 35.7544C49.9834 36.1178 50.1875 36.6106 50.1875 37.1244ZM48.25 42.9369H32.75C32.2361 42.9369 31.7433 43.1411 31.38 43.5044C31.0166 43.8678 30.8125 44.3606 30.8125 44.8744C30.8125 45.3883 31.0166 45.8811 31.38 46.2445C31.7433 46.6078 32.2361 46.8119 32.75 46.8119H48.25C48.7639 46.8119 49.2567 46.6078 49.62 46.2445C49.9834 45.8811 50.1875 45.3883 50.1875 44.8744C50.1875 44.3606 49.9834 43.8678 49.62 43.5044C49.2567 43.1411 48.7639 42.9369 48.25 42.9369ZM65.6875 40.9994C65.6884 45.348 64.5635 49.6227 62.4223 53.4075C60.281 57.1924 57.1963 60.3583 53.4684 62.5973C49.7406 64.8363 45.4965 66.0719 41.1494 66.1841C36.8023 66.2962 32.5002 65.2809 28.6619 63.2371L20.4154 65.9859C19.7326 66.2136 18.9999 66.2467 18.2995 66.0813C17.599 65.916 16.9584 65.5589 16.4495 65.05C15.9405 64.5411 15.5834 63.9005 15.4181 63.2C15.2528 62.4995 15.2858 61.7668 15.5135 61.084L18.2623 52.8376C16.4657 49.4596 15.4622 45.7167 15.328 41.893C15.1938 38.0693 15.9325 34.2653 17.488 30.7698C19.0435 27.2742 21.3749 24.1789 24.3052 21.7189C27.2355 19.2588 30.6878 17.4987 34.3999 16.5721C38.1121 15.6455 41.9865 15.5767 45.7292 16.3711C49.4719 17.1654 52.9844 18.8019 56.0002 21.1565C59.016 23.511 61.4557 26.5216 63.1342 29.9598C64.8127 33.398 65.6859 37.1734 65.6875 40.9994ZM61.8125 40.9994C61.8116 37.7302 61.0586 34.505 59.6117 31.5734C58.1649 28.6417 56.063 26.0822 53.4687 24.0929C50.8744 22.1036 47.8572 20.7377 44.6506 20.101C41.4439 19.4644 38.1338 19.5739 34.9763 20.4212C31.8187 21.2686 28.8985 22.8309 26.4414 24.9874C23.9843 27.144 22.0563 29.8368 20.8064 32.8577C19.5566 35.8786 19.0185 39.1466 19.2337 42.4087C19.449 45.6708 20.4118 48.8397 22.0477 51.6702C22.185 51.9078 22.2703 52.1719 22.2978 52.445C22.3254 52.718 22.2946 52.9939 22.2076 53.2541L19.1875 62.3119L28.2453 59.2919C28.4426 59.2246 28.6496 59.1902 28.858 59.1901C29.1983 59.1907 29.5325 59.281 29.8268 59.4517C33.0668 61.3263 36.7433 62.3145 40.4865 62.3168C44.2297 62.3192 47.9075 61.3356 51.1499 59.4652C54.3922 57.5947 57.0848 54.9032 58.9566 51.6616C60.8283 48.42 61.8134 44.7426 61.8125 40.9994Z" fill="#FD6969"/>
</svg>
