<svg width="81" height="80" viewBox="0 0 81 80" fill="none" xmlns="http://www.w3.org/2000/svg">
<rect x="0.5" width="80" height="80" rx="6" fill="white"/>
<path d="M59.8751 15.8125H50.1876C49.6738 15.8125 49.181 16.0166 48.8176 16.38C48.4542 16.7433 48.2501 17.2361 48.2501 17.75C48.2501 18.2639 48.4542 18.7567 48.8176 19.12C49.181 19.4834 49.6738 19.6875 50.1876 19.6875H55.1985L49.1075 25.7785C47.319 24.1118 45.1616 22.8917 42.8115 22.218C40.4614 21.5443 37.9853 21.436 35.5853 21.902C33.1854 22.3681 30.9298 23.3952 29.0026 24.8995C27.0755 26.4038 25.5315 28.3426 24.4968 30.5576C23.4621 32.7726 22.966 35.2009 23.049 37.6442C23.132 40.0876 23.7918 42.4766 24.9745 44.6163C26.1572 46.7559 27.8293 48.5854 29.8541 49.9554C31.8789 51.3254 34.1991 52.197 36.6251 52.4991V56.5H30.8126C30.2988 56.5 29.806 56.7041 29.4426 57.0675C29.0793 57.4308 28.8751 57.9236 28.8751 58.4375C28.8751 58.9514 29.0793 59.4442 29.4426 59.8075C29.806 60.1709 30.2988 60.375 30.8126 60.375H36.6251V66.1875C36.6251 66.7014 36.8293 67.1942 37.1926 67.5575C37.556 67.9209 38.0488 68.125 38.5626 68.125C39.0765 68.125 39.5693 67.9209 39.9326 67.5575C40.296 67.1942 40.5001 66.7014 40.5001 66.1875V60.375H46.3126C46.8265 60.375 47.3193 60.1709 47.6826 59.8075C48.046 59.4442 48.2501 58.9514 48.2501 58.4375C48.2501 57.9236 48.046 57.4308 47.6826 57.0675C47.3193 56.7041 46.8265 56.5 46.3126 56.5H40.5001V52.4991C43.0972 52.1746 45.5696 51.1971 47.6862 49.6578C49.8029 48.1184 51.4948 46.0676 52.6037 43.6969C53.7126 41.3262 54.2023 38.7131 54.0271 36.1017C53.852 33.4903 53.0176 30.966 51.602 28.7647L57.9376 22.4266V27.4375C57.9376 27.9514 58.1418 28.4442 58.5051 28.8075C58.8685 29.1709 59.3613 29.375 59.8751 29.375C60.389 29.375 60.8818 29.1709 61.2451 28.8075C61.6085 28.4442 61.8126 27.9514 61.8126 27.4375V17.75C61.8126 17.2361 61.6085 16.7433 61.2451 16.38C60.8818 16.0166 60.389 15.8125 59.8751 15.8125ZM38.5626 48.75C36.2634 48.75 34.0158 48.0682 32.1041 46.7908C30.1924 45.5135 28.7024 43.6979 27.8225 41.5737C26.9427 39.4495 26.7124 37.1121 27.161 34.8571C27.6095 32.602 28.7167 30.5307 30.3425 28.9049C31.9683 27.2791 34.0397 26.1719 36.2947 25.7234C38.5497 25.2748 40.8871 25.505 43.0113 26.3849C45.1355 27.2648 46.9511 28.7548 48.2285 30.6665C49.5058 32.5782 50.1876 34.8258 50.1876 37.125C50.1844 40.2072 48.9586 43.1622 46.7792 45.3416C44.5998 47.521 41.6448 48.7468 38.5626 48.75Z" fill="#FD6969"/>
</svg>
