<svg width="81" height="80" viewBox="0 0 81 80" fill="none" xmlns="http://www.w3.org/2000/svg">
<rect x="0.5" width="80" height="80" rx="6" fill="white"/>
<path d="M43.8083 42.3708L34.1208 52.0583C33.9408 52.2383 33.7271 52.3811 33.4919 52.4785C33.2567 52.5759 33.0046 52.6261 32.75 52.6261C32.4954 52.6261 32.2433 52.5759 32.0081 52.4785C31.7729 52.3811 31.5592 52.2383 31.3792 52.0583C31.1992 51.8783 31.0564 51.6646 30.959 51.4294C30.8616 51.1942 30.8114 50.9421 30.8114 50.6875C30.8114 50.4329 30.8616 50.1808 30.959 49.9456C31.0564 49.7104 31.1992 49.4967 31.3792 49.3167L37.7609 42.9375H15.3125C14.7986 42.9375 14.3058 42.7334 13.9425 42.37C13.5791 42.0067 13.375 41.5139 13.375 41C13.375 40.4861 13.5791 39.9933 13.9425 39.63C14.3058 39.2666 14.7986 39.0625 15.3125 39.0625H37.7609L31.3792 32.6833C31.0157 32.3197 30.8114 31.8266 30.8114 31.3125C30.8114 30.7984 31.0157 30.3053 31.3792 29.9417C31.7428 29.5782 32.2359 29.3739 32.75 29.3739C33.2641 29.3739 33.7572 29.5782 34.1208 29.9417L43.8083 39.6292C43.9884 39.8092 44.1313 40.0228 44.2288 40.2581C44.3263 40.4933 44.3765 40.7454 44.3765 41C44.3765 41.2546 44.3263 41.5067 44.2288 41.7419C44.1313 41.9772 43.9884 42.1908 43.8083 42.3708ZM56 17.75H42.4375C41.9236 17.75 41.4308 17.9541 41.0675 18.3175C40.7041 18.6808 40.5 19.1736 40.5 19.6875C40.5 20.2014 40.7041 20.6942 41.0675 21.0575C41.4308 21.4209 41.9236 21.625 42.4375 21.625H56V60.375H42.4375C41.9236 60.375 41.4308 60.5791 41.0675 60.9425C40.7041 61.3058 40.5 61.7986 40.5 62.3125C40.5 62.8264 40.7041 63.3192 41.0675 63.6825C41.4308 64.0459 41.9236 64.25 42.4375 64.25H56C57.0277 64.25 58.0133 63.8417 58.74 63.115C59.4667 62.3883 59.875 61.4027 59.875 60.375V21.625C59.875 20.5973 59.4667 19.6117 58.74 18.885C58.0133 18.1583 57.0277 17.75 56 17.75Z" fill="#FD6969"/>
</svg>
