<svg width="81" height="80" viewBox="0 0 81 80" fill="none" xmlns="http://www.w3.org/2000/svg">
<rect x="0.5" width="80" height="80" rx="6" fill="white"/>
<path d="M37.8969 48.2463C40.4937 46.5175 42.4652 43.999 43.5198 41.0631C44.5745 38.1273 44.6563 34.9299 43.7533 31.9439C42.8503 28.9579 41.0103 26.3418 38.5054 24.4824C36.0005 22.6231 32.9638 21.6191 29.8442 21.6191C26.7246 21.6191 23.6879 22.6231 21.183 24.4824C18.6782 26.3418 16.8382 28.9579 15.9351 31.9439C15.0321 34.9299 15.1139 38.1273 16.1686 41.0631C17.2233 43.999 19.1947 46.5175 21.7915 48.2463C17.0942 49.9775 13.0827 53.1812 10.3554 57.3792C10.212 57.5922 10.1125 57.8316 10.0625 58.0835C10.0125 58.3353 10.013 58.5946 10.0641 58.8462C10.1152 59.0979 10.2158 59.3368 10.3601 59.5493C10.5043 59.7617 10.6894 59.9433 10.9044 60.0836C11.1195 60.2239 11.3603 60.32 11.6128 60.3664C11.8654 60.4128 12.1246 60.4085 12.3755 60.3538C12.6264 60.2991 12.8639 60.1951 13.0742 60.0478C13.2845 59.9006 13.4635 59.7129 13.6007 59.4959C15.3599 56.7901 17.7672 54.5667 20.6039 53.0275C23.4406 51.4883 26.6168 50.6821 29.8442 50.6821C33.0716 50.6821 36.2478 51.4883 39.0845 53.0275C41.9212 54.5667 44.3285 56.7901 46.0877 59.4959C46.3719 59.9183 46.8109 60.2118 47.3097 60.3131C47.8086 60.4144 48.3273 60.3152 48.7537 60.0371C49.1801 59.759 49.4799 59.3243 49.5883 58.8269C49.6967 58.3296 49.605 57.8095 49.333 57.3792C46.6058 53.1812 42.5942 49.9775 37.8969 48.2463ZM19.188 36.1563C19.188 34.0487 19.8129 31.9884 20.9839 30.236C22.1548 28.4836 23.8191 27.1177 25.7662 26.3112C27.7134 25.5047 29.856 25.2936 31.9231 25.7048C33.9902 26.116 35.889 27.1309 37.3793 28.6212C38.8696 30.1115 39.8845 32.0102 40.2957 34.0774C40.7069 36.1445 40.4958 38.2871 39.6893 40.2343C38.8828 42.1814 37.5169 43.8457 35.7645 45.0166C34.0121 46.1876 31.9518 46.8125 29.8442 46.8125C27.019 46.8093 24.3104 45.6856 22.3126 43.6879C20.3149 41.6901 19.1912 38.9815 19.188 36.1563ZM70.0812 60.0602C69.6509 60.3408 69.1267 60.439 68.6239 60.3332C68.1211 60.2274 67.681 59.9262 67.4002 59.4959C65.6431 56.7885 63.2362 54.5641 60.3989 53.0256C57.5616 51.487 54.3843 50.6832 51.1567 50.6875C50.6429 50.6875 50.15 50.4834 49.7867 50.1201C49.4233 49.7567 49.2192 49.2639 49.2192 48.75C49.2192 48.2362 49.4233 47.7434 49.7867 47.38C50.15 47.0167 50.6429 46.8125 51.1567 46.8125C52.726 46.8111 54.2756 46.463 55.6948 45.7932C57.114 45.1234 58.3677 44.1484 59.3664 42.938C60.3651 41.7275 61.0842 40.3113 61.4721 38.7907C61.8601 37.2702 61.9074 35.6826 61.6107 34.1416C61.314 32.6006 60.6807 31.1442 59.7558 29.8764C58.831 28.6085 57.6376 27.5606 56.2608 26.8074C54.8841 26.0543 53.3579 25.6145 51.7915 25.5196C50.2251 25.4246 48.657 25.6768 47.1994 26.2581C46.9617 26.3608 46.7058 26.4149 46.4469 26.4171C46.188 26.4193 45.9313 26.3695 45.6919 26.2708C45.4526 26.1721 45.2354 26.0264 45.0533 25.8424C44.8712 25.6583 44.7278 25.4396 44.6316 25.1992C44.5355 24.9588 44.4885 24.7016 44.4934 24.4427C44.4984 24.1838 44.5551 23.9286 44.6604 23.692C44.7657 23.4554 44.9173 23.2424 45.1063 23.0654C45.2953 22.8884 45.5178 22.7511 45.7608 22.6616C49.0968 21.3311 52.8074 21.2833 56.1766 22.5272C59.5459 23.7711 62.3351 26.2187 64.0062 29.3978C65.6773 32.5769 66.1119 36.2623 65.2261 39.7429C64.3403 43.2235 62.1969 46.2528 59.2094 48.2463C63.9067 49.9775 67.9183 53.1812 70.6455 57.3792C70.9262 57.8096 71.0244 58.3338 70.9186 58.8365C70.8127 59.3393 70.5116 59.7795 70.0812 60.0602Z" fill="#FD6969"/>
</svg>
